<svg id="Layer_1" data-name="Layer 1" xmlns="http://www.w3.org/2000/svg" viewBox="0 0 821.11 433"><defs><style>.cls-1{fill:#1c4d2b;}.cls-2{fill:#f3b8c0;}.cls-3{fill:#fff;opacity:0.5;}</style></defs><title>Artboard 2</title><path class="cls-1" d="M292.09,305.15H244.25v-1.32L262.69,285l38.18-113.23-3.29-9.88v-1.32l29.19-9.87,50.47,152.08,14.92,1.09v1.32H324.79v-1.32l19.75-1.09-17.11-51.57H276.29L264.88,285l27.21,18.87ZM326.55,249,302,175,277.17,249Z"/><path class="cls-1" d="M397.65,305.15v-1.32l17.77-1.09V195.87L397.65,195v-1.32l37.52-.88,6.37,20.85c6.14-14.48,18-23,30.06-23A36.88,36.88,0,0,1,485.21,193l2.63,36.21-1.76.44-19.31-36.43c-8.34,1.32-19.75,9.22-24.58,24.8v84.71l22.17,1.09v1.32Z"/><path class="cls-1" d="M572.76,305.15l-7-16.68c-9.44,11.41-21.28,18.88-37.3,18.88-17.34,0-28.53-10.54-28.53-27.22,0-17.11,12.51-31.6,42.79-38.4l22.38-5V216.93c0-16.46-7-23.48-16.24-23.48-14,0-28.52,12.51-39.5,37.09l-1.75-.44L514,190.6h1.32l12.07,9.87c8.34-6.8,15.58-9.87,26.11-9.87,24.14,0,38.41,12.07,38.41,37.3v74.84l17.77,1.09v1.32Zm-7.68-18.65V238.88l-8.34,2c-21.5,5.05-29.4,14.49-29.4,32.48s5,26.33,16.24,26.33C550.82,299.66,557.84,294.62,565.08,286.5Z"/><path class="cls-1" d="M679,305.15H616.65v-1.32l17.78-1.09V195.87L616.65,195v-1.32l37.53-.88,6.36,21.07c7-13.82,21.29-23.26,36.65-23.26,16.68,0,27.87,7.9,32.26,23.26a42.58,42.58,0,0,1,37.74-23.26c22.61,0,34.9,13.82,34.9,39.94v72.2l17.77,1.09v1.32H757.54v-1.32l17.77-1.09V218.91c0-16.9-6.58-24.14-16-24.14-9.65,0-23.48,8.56-29,22.6a60.71,60.71,0,0,1,1.31,13.17v72.2l17.78,1.09v1.32H687.1v-1.32l17.77-1.09V218.91c0-16.9-6.8-24.14-15.58-24.14S666.91,203.33,661.2,218v84.71L679,303.83Z"/><path class="cls-2" d="M271,332.9l-6.92,20.91h-5.21l-11.62-34.54-3-.26v-.31h15.34V319l-4.65.26,10.12,29.94,5.68-17.14-3.92-12.8-4.5-.26v-.31h16.89V319l-4.49.26,9,29.32,7.69-25.14L284.84,319v-.31h11.25V319L292,323.45l-9.34,30.36h-5.17Z"/><path class="cls-2" d="M308.11,354.33c-7,0-13.06-5.17-13.06-13.74s6.09-13.73,13.06-13.73,13,5.27,13,13.73S315,354.33,308.11,354.33Zm0-27c-4.54,0-6.09,2.33-6.09,13.27s1.55,13.27,6.09,13.27,6-2.32,6-13.27S312.6,327.32,308.11,327.32Z"/><path class="cls-2" d="M338.62,353.81H324v-.31l4.18-.26V328.1l-4.18-.21v-.31l8.82-.2,1.5,4.95a9.87,9.87,0,0,1,8.62-5.47c3.93,0,6.56,1.86,7.59,5.47a10,10,0,0,1,8.88-5.47c5.32,0,8.21,3.25,8.21,9.4v17l4.18.26v.31H357.1v-.31l4.18-.26V333.52c0-4-1.54-5.68-3.76-5.68s-5.53,2-6.82,5.32a14.09,14.09,0,0,1,.31,3.1v17l4.18.26v.31H340.53v-.31l4.18-.26V333.52c0-4-1.6-5.68-3.67-5.68s-5.26,2-6.6,5.47v19.93l4.18.26Z"/><path class="cls-2" d="M387.45,354.33c-7.69,0-13.27-5.58-13.27-13.74s5.78-13.73,12.29-13.73,11.46,5.37,12.08,13.42h-17.4c.05,10.54,1.91,13.37,7.33,13.37a9.34,9.34,0,0,0,9.14-6.29l.47.2C396.23,352.26,392.66,354.33,387.45,354.33Zm-6.3-14.56h10.53c-.05-10.17-1.6-12.45-5.21-12.45C382.34,327.32,381.15,330.52,381.15,339.77Z"/><path class="cls-2" d="M418.06,353.5l4.18-.26V333.52c0-4-1.44-5.68-4-5.68-2.17,0-5.47,2-6.82,5.47v19.93l4.19.26v.31H401v-.31l4.18-.26V328.1l-4.18-.21v-.31l8.83-.2,1.5,4.95a9.94,9.94,0,0,1,8.83-5.47c5.62,0,8.41,3.25,8.41,9.4v17l4.18.26v.31H418.06Z"/><path class="cls-2" d="M435.51,328.51l-3.2-12.39H439l-3.2,12.39Z"/><path class="cls-2" d="M447.07,352l-3.15,1.81h-.31l-1.24-11,.52-.1c2.11,7.85,5.68,11.1,10.53,11.1,2.84,0,4.59-1.81,4.59-4.18,0-7.8-14.61-5-14.61-15.13,0-4.23,3.15-7.64,8.37-7.64a7.71,7.71,0,0,1,5.26,2.06l3.31-1.54h.31l.67,9-.52.1c-2.22-6.76-5.73-9.19-9-9.19a3.92,3.92,0,0,0-4.13,4c0,7.28,14.61,5,14.61,15.13,0,4.49-3.51,7.9-8.57,7.9A9.49,9.49,0,0,1,447.07,352Z"/><path class="cls-2" d="M480.52,340.59c0-8.46,6.19-13.73,12.7-13.73a7.58,7.58,0,0,1,5.63,2.32l3.51-1.8h.31l.31,9.7-.52.1-.83-2.27c-2-5.47-5.11-7.59-8.46-7.59-4,0-5.68,2.33-5.68,13.27s2.17,13.06,6.61,13.06c4.13,0,6.76-2.58,8.26-6.24l.46.2c-1.75,4.19-4.39,6.72-9.5,6.72C486.66,354.33,480.52,349.16,480.52,340.59Z"/><path class="cls-2" d="M505.81,353.81v-.31l4.18-.26v-36.4l-4.18-.2v-.31l10.48-.21v37.12l4.18.26v.31Z"/><path class="cls-2" d="M536.37,354.33c-7,0-13.06-5.17-13.06-13.74s6.09-13.73,13.06-13.73,13,5.27,13,13.73S543.24,354.33,536.37,354.33Zm0-27c-4.54,0-6.09,2.33-6.09,13.27s1.55,13.27,6.09,13.27,6-2.32,6-13.27S540.86,327.32,536.37,327.32Z"/><path class="cls-2" d="M564.25,354.33c-4.8,0-8.47-2.59-8.47-9.56V327.89H552v-.51h3.82v-3.1l6-6.61h.31v9.71h7.28v.51h-7.28v20c0,3.77,1,5.63,3.41,5.63,2,0,3.3-1.86,4-4.54l.47.15C569.15,352.05,567.86,354.33,564.25,354.33Z"/><path class="cls-2" d="M588.77,353.81v-.31l4.18-.26V333.52c0-4-1.45-5.68-4-5.68-2.16,0-5.47,2-6.81,5.47v19.93l4.18.26v.31H571.68v-.31l4.18-.26v-36.4l-4.18-.2v-.31l10.48-.21V332a10,10,0,0,1,8.67-5.16c5.63,0,8.42,3.25,8.42,9.4v17l4.18.26v.31Z"/><path class="cls-2" d="M605.08,353.81v-.31l4.18-.26V328.1l-4.18-.21v-.31l10.48-.2v25.86l4.18.26v.31ZM612.2,323a3.7,3.7,0,1,1,3.67-3.77A3.59,3.59,0,0,1,612.2,323Z"/><path class="cls-2" d="M638.89,353.5l4.18-.26V333.52c0-4-1.44-5.68-4-5.68-2.17,0-5.48,2-6.82,5.47v19.93l4.18.26v.31H621.8v-.31l4.18-.26V328.1l-4.18-.21v-.31l8.83-.2,1.5,4.95a9.92,9.92,0,0,1,8.82-5.47c5.63,0,8.42,3.25,8.42,9.4v17l4.18.26v.31H638.89Z"/><path class="cls-2" d="M668.57,367.23c-7.8,0-12.08-2.37-12.08-6.3,0-3.09,3.2-5.83,8.36-7l-7.12-.56a75,75,0,0,1,5.94-8.94c-3.72-1.39-6.46-4.28-6.46-8.31,0-5.73,5.47-9.29,11.41-9.29a12.47,12.47,0,0,1,9.14,3.61l6.35-3.61h.52v3.87H678a8.24,8.24,0,0,1,2,5.42c0,5.68-5.47,9.14-11.41,9.14a15.79,15.79,0,0,1-4.44-.67,30.4,30.4,0,0,0-2.68,3.77l8.31.72c8.62.78,13.47,3.93,13.47,8.83S677.55,367.23,668.57,367.23Zm.21-.51c6.86,0,9.76-2.58,9.76-5.94s-3.15-5.94-10-6.51l-3.25-.25c-3.15,2.06-4.39,4-4.39,6.6C660.93,364.55,664.08,366.72,668.78,366.72Zm5.11-30.57c0-7.07-1.55-8.83-5.27-8.83s-5.26,1.76-5.26,8.83,1.54,8.68,5.26,8.68S673.89,343.07,673.89,336.15Z"/><path class="cls-2" d="M706.1,352,703,353.81h-.31l-1.24-11,.51-.1c2.12,7.85,5.68,11.1,10.54,11.1,2.84,0,4.59-1.81,4.59-4.18,0-7.8-14.61-5-14.61-15.13,0-4.23,3.15-7.64,8.36-7.64a7.72,7.72,0,0,1,5.27,2.06l3.3-1.54h.31l.68,9-.52.1c-2.22-6.76-5.73-9.19-9-9.19a3.92,3.92,0,0,0-4.13,4c0,7.28,14.61,5,14.61,15.13,0,4.49-3.51,7.9-8.57,7.9A9.46,9.46,0,0,1,706.1,352Z"/><path class="cls-2" d="M736.35,354.33c-4.81,0-8.47-2.59-8.47-9.56V327.89h-3.82v-.51h3.82v-3.1l6-6.61h.31v9.71h7.28v.51h-7.28v20c0,3.77,1,5.63,3.41,5.63,2,0,3.3-1.86,4-4.54l.47.15C741.25,352.05,740,354.33,736.35,354.33Z"/><path class="cls-2" d="M757.61,354.33c-7,0-13.06-5.17-13.06-13.74s6.09-13.73,13.06-13.73,13,5.27,13,13.73S764.48,354.33,757.61,354.33Zm0-27c-4.54,0-6.09,2.33-6.09,13.27s1.55,13.27,6.09,13.27,6-2.32,6-13.27S762.11,327.32,757.61,327.32Z"/><path class="cls-2" d="M773.46,353.81v-.31l4.18-.26V328.1l-4.18-.21v-.31l8.83-.2,1.49,4.9c1.45-3.41,4.24-5.42,7.08-5.42a8.67,8.67,0,0,1,3.2.57l.62,8.52-.41.1-4.55-8.57c-2,.31-4.65,2.17-5.78,5.83v19.93l5.21.26v.31Z"/><path class="cls-2" d="M810,354.33c-7.7,0-13.27-5.58-13.27-13.74s5.78-13.73,12.29-13.73,11.46,5.37,12.08,13.42h-17.4c0,10.54,1.91,13.37,7.33,13.37a9.35,9.35,0,0,0,9.14-6.29l.46.2C818.78,352.26,815.22,354.33,810,354.33Zm-6.3-14.56h10.53c0-10.17-1.6-12.45-5.21-12.45C804.9,327.32,803.71,330.52,803.71,339.77Z"/><path class="cls-1" d="M94.4,336.6c-2.17-2.66-3-4.82-2-8.19,2.6-8.56,4.84-17.23,7.13-25.89,2.53-9.54,3.59-19.11,1.72-29C98.21,257.13,87.8,245.42,77,234c-19.64-20.86-39.83-41.34-42.93-72.78-2.95,3.47-3.93,7-5.23,10.38-7.91,20.56-15.38,41.31-23.74,61.7-8.73,21.26-6,40.8,6.42,59.62C20.36,306.23,31,318,41.89,329.69c15.77,16.89,33,32.51,45.89,51.91,8.16,12.29,14.63,25.26,15.29,40.52,1.09-2.59,2.23-5.14,3.27-7.75,5.5-13.84,10.8-27.71,7.15-43.11C110.32,357.93,102.85,347,94.4,336.6ZM21.91,205.09c3.3,25.88,21.94,42.22,37.29,60.55,8.53,10.15,18.47,19.12,24.63,31.23,4.9,9.68,5,19.59,3.58,31.45-7.74-6.57-13-13.5-18.71-19.94-11.74-13.19-23.77-26.12-35-39.74C18,249.62,16.32,228.16,21.91,205.09Z"/><path class="cls-1" d="M56,101.59c1.94,22.83,12.67,40.27,26.44,56.09,19.75,22.7,40.11,44.88,59.68,67.73,17.61,20.56,21.44,43.69,10.41,68.82-1.49,3.39-3,6.79-4.47,10.17-.06.13-.34.17-1.13.51-2.27-28.37-20.56-47.62-38.06-67.28-16.94-19-34.66-37.42-50.22-57.65C45,162.17,40.48,142.62,48.48,121,50.74,114.91,53.17,108.86,56,101.59Z"/><path class="cls-1" d="M102.34,0c2.12,22.81,13,40.17,26.87,55.88,19.93,22.55,40.46,44.57,60.2,67.27C207.18,143.57,212.86,163,202,188.26c-1.46,3.4-2.91,6.81-4.39,10.2-.06.14-.34.17-1.12.53-2.49-28.37-22.6-43.84-40.25-63.37-17.09-18.91-34.95-37.14-50.66-57.26C91.78,60.66,87.16,41.15,95,19.49,97.21,13.36,99.59,7.28,102.34,0Z"/><path class="cls-1" d="M212.41,286.45l-.38.84c-1.2,2.74-2.39,5.49-3.61,8.22l-.35.68c-.1.17-.18.36-.28.53-11.48,22.15-25.35,42.94-38.34,64.21C155.9,383.11,141.51,405,144.28,433c-.82-.2-1.1-.19-1.19-.3-2.05-3-4.08-6.07-6.12-9.09-15.13-22.49-15.47-45.64-2-68.72,15-25.64,30.89-50.76,46.1-76.28l.12-.21a33.07,33.07,0,0,0-3.67-38.64c-2.91-3.32-5.86-6.61-8.8-9.91-16.94-19-73.35-80.79-88.9-101C66.16,111,61.7,91.47,69.69,69.88c2.26-6.12,4.7-12.18,7.5-19.43,2,22.82,12.66,40.27,26.44,56.08,19.74,22.71,78.8,88.24,98.36,111.1C219.6,238.19,223.44,261.32,212.41,286.45Z"/><path class="cls-3" d="M17.7,273.3c4.9,4.52,8.83,9.88,12.86,15.07,15.86,20.47,33.82,39,52,57.33,5.17,5.25,10.15,10.72,13.19,17.6.59,1.32,1.67,2.56.1,4.59C71.48,334.78,36.64,310.68,17.7,273.3Z"/><path class="cls-3" d="M85.63,272c-16-17.65-34.17-33.58-44.88-55.5C53.84,236.53,72.65,251.94,85.63,272Z"/><path class="cls-3" d="M140.28,251.66c-24.2-31.78-56.78-56.62-76.7-91.85C72.44,170,80.31,181.05,89.52,191s18,20,27.17,29.86C125.57,230.4,135.49,239.14,140.28,251.66Z"/><path class="cls-3" d="M187.8,149.41c-24.44-31.6-57.22-56.18-77.41-91.26,8.94,10.15,16.9,21.12,26.18,31S154.73,109,164,118.79C172.92,128.27,182.91,136.93,187.8,149.41Z"/><path class="cls-3" d="M161.5,200.51c-24.2-31.78-56.79-56.62-76.71-91.85,8.87,10.22,16.73,21.24,25.94,31.19s18,20,27.17,29.86C146.78,179.25,156.7,188,161.5,200.51Z"/><path class="cls-3" d="M142.47,378.59c17.93-35.14,45.23-65,58.4-102.73-6.82,11.49-12.53,23.59-19.73,34.86s-14,22.61-21.16,33.79C153,355.35,144.93,365.58,142.47,378.59Z"/></svg>